# xmcd
#
# Track frame offsets: 
#        150
#        1150
#        24800
#        49832
#        70630
#        92987
#        117672
#        137062
#        166107
#        192047
#        210970
#        239137
#        260975
#        286315
#        308187
#
# Disc length: 4421 seconds
#
# Revision: 0
# Processed by: cddbd v1.5.2PL0 Copyright (c) Steve Scherf et al.
# Submitted via: ExactAudioCopy v0.99pb3
#
DISCID=d011430f
DTITLE=Botany Boyz - Forever Botany (Screwed Up Version)
DYEAR=2000
DGENRE=Dirty South
TTITLE0=Intro - Botany St.
TTITLE1=Sitt'n On Top of the World
TTITLE2=Block That Stay Crunk
TTITLE3=We Throwed
TTITLE4=Drop It In Tha Sunny
TTITLE5=My Piece Shine Brite
TTITLE6=Partnaz on Botany
TTITLE7=We Miss U Gator
TTITLE8=Cloverland 2000
TTITLE9=Money-In-My-Life
TTITLE10=Here They Come!!
TTITLE11=Com'n Down Wreckin, Part II
TTITLE12=Call'n Yo Name
TTITLE13=As You Can See (Southside)
TTITLE14=Forever Botany
EXTD=
EXTT0=
EXTT1=
EXTT2=
EXTT3=
EXTT4=
EXTT5=
EXTT6=
EXTT7=
EXTT8=
EXTT9=
EXTT10=
EXTT11=
EXTT12=
EXTT13=
EXTT14=
PLAYORDER=
